<?xml version="1.0" encoding="UTF-8"?>
<svg id="Camada_1" data-name="Camada 1" xmlns="http://www.w3.org/2000/svg" viewBox="0 0 1080 1080">
  <defs>
    <style>
      .cls-1 {
        fill: #0e1f2d;
      }

      .cls-2 {
        fill: #a55c2b;
      }
    </style>
  </defs>
  <g>
    <path class="cls-1" d="M381.89,633.14h24.33v5.41h-18.18v7.96h17.11v5.13h-17.11v8.46h18.41v5.41h-24.56v-32.38Z"/>
    <path class="cls-1" d="M408.12,633.14h6.8l8.88,24.84h.32l8.33-24.84h6.52l-11.75,32.38h-7.08l-12.02-32.38Z"/>
    <path class="cls-1" d="M470.74,648.45v1.76c0,11.1-6.98,15.86-15.17,15.86s-15.22-4.76-15.22-15.86v-1.76c0-11.1,7.03-15.86,15.22-15.86s15.17,4.76,15.17,15.86ZM455.57,660.57c5.87,0,8.69-2.96,8.69-9.11v-4.25c0-6.15-2.82-9.11-8.69-9.11s-8.74,2.96-8.74,9.11v4.25c0,6.15,2.87,9.11,8.74,9.11Z"/>
    <path class="cls-1" d="M476.44,633.14h6.15v26.96h16.7v5.41h-22.85v-32.38Z"/>
    <path class="cls-1" d="M502.75,653.82v-20.67h6.15v19.29c0,6.34,2.41,8.05,7.86,8.05s7.91-1.71,7.91-8.05v-19.29h6.15v20.67c0,7.26-3.61,12.26-14.06,12.26s-14.01-4.99-14.01-12.26Z"/>
    <path class="cls-1" d="M559.18,653.12h6.11c0,8.19-4.9,12.67-13.18,12.95l-.14.69c3.15.37,4.86,1.39,4.86,3.79s-1.67,3.47-5.04,3.47c-1.25,0-2.17-.18-3.05-.42v-2.27h1.53c1.02,0,1.67-.23,1.67-1.02s-.74-1.2-1.99-1.57l.69-2.68c-7.82-.28-14.48-5.09-14.48-15.86v-1.76c0-11.1,7.03-15.86,15.12-15.86,8.79,0,14.01,4.49,14.01,12.49h-6.11l-.05-.83c-.19-3.61-2.5-6.15-7.86-6.15-5.78,0-8.65,2.96-8.65,9.11v4.25c0,6.15,2.87,9.11,8.65,9.11,5.37,0,7.63-2.5,7.86-6.61l.05-.83Z"/>
    <path class="cls-1" d="M579.58,633.14h7.08l12.67,32.38h-6.8l-2.91-7.68h-13.41l-2.91,7.68h-6.57l12.86-32.38ZM580.04,623.8c3.1,0,4.02,2.36,5.73,2.36.97,0,1.53-.6,1.57-1.9h3.28c0,3.42-1.43,5.92-4.67,5.92s-4.02-2.36-5.73-2.36c-.97,0-1.57.6-1.62,1.9h-3.28c0-3.56,1.43-5.92,4.72-5.92ZM587.67,652.8l-4.67-12.21h-.28l-4.63,12.21h9.57Z"/>
    <path class="cls-1" d="M631.11,648.45v1.76c0,11.1-6.98,15.86-15.17,15.86s-15.22-4.76-15.22-15.86v-1.76c0-11.1,7.03-15.86,15.22-15.86s15.17,4.76,15.17,15.86ZM615.94,660.57c5.87,0,8.69-2.96,8.69-9.11v-4.25c0-6.15-2.82-9.11-8.69-9.11s-8.74,2.96-8.74,9.11v4.25c0,6.15,2.87,9.11,8.74,9.11Z"/>
    <path class="cls-1" d="M646.79,633.14h24.33v5.41h-18.18v7.96h17.11v5.13h-17.11v8.46h18.41v5.41h-24.56v-32.38Z"/>
    <path class="cls-1" d="M676.2,633.14h8.14l8.93,24.05h.32l8.88-24.05h8.09v32.38h-6.15v-21.83h-.32l-8.19,21.83h-5.04l-8.19-21.83h-.32v21.83h-6.15v-32.38Z"/>
    <path class="cls-1" d="M726.94,653.82v-20.67h6.15v19.29c0,6.34,2.4,8.05,7.86,8.05s7.91-1.71,7.91-8.05v-19.29h6.15v20.67c0,7.26-3.61,12.26-14.06,12.26s-14.01-4.99-14.01-12.26Z"/>
    <path class="cls-1" d="M776.67,652.34l-7.4-1.16c-5.41-.88-8.33-3.93-8.33-8.42v-1.16c0-5.5,4.63-9.02,12.81-9.02s12.63,3.33,12.86,10.59h-5.92l-.05-.83c-.14-3.01-2.27-4.63-6.89-4.63-4.9,0-6.75,1.48-6.75,3.88v.46c0,2.27,1.2,3.1,4.25,3.56l7.4,1.2c6.1.92,8.88,3.98,8.88,8.6v1.39c0,5.55-4.63,9.25-13.27,9.25-9.34,0-13.83-3.42-14.06-11.33h6.01l.05.83c.19,3.7,2.78,5.23,8,5.23,4.9,0,7.12-1.29,7.12-4.02v-.46c0-2.22-1.2-3.38-4.72-3.98Z"/>
    <path class="cls-1" d="M792.99,633.14h6.15v32.38h-6.15v-32.38Z"/>
    <path class="cls-1" d="M805.85,633.14h6.98l15.54,22.8h.32v-22.8h6.15v32.38h-6.98l-15.54-22.8h-.32v22.8h-6.15v-32.38Z"/>
    <path class="cls-1" d="M851.23,633.14h7.08l12.67,32.38h-6.8l-2.91-7.68h-13.41l-2.91,7.68h-6.57l12.86-32.38ZM859.32,652.8l-4.67-12.21h-.28l-4.63,12.21h9.57Z"/>
    <path class="cls-1" d="M872.37,650.21v-1.76c0-11.1,7.03-15.86,15.22-15.86,9.02,0,14.25,4.39,14.25,12.03h-6.1l-.05-.83c-.14-3.33-2.5-5.69-8.09-5.69-5.87,0-8.74,2.96-8.74,9.11v4.25c0,6.24,3.1,9.25,8.88,9.25s8.37-1.9,8.69-7.31h-8.97v-4.76h14.52v16.88h-3.98l-1.2-4.58h-.32c-1.43,3.51-4.58,5.13-9.57,5.13-7.63,0-14.52-4.76-14.52-15.86Z"/>
    <path class="cls-1" d="M908.54,633.14h24.33v5.41h-18.18v7.96h17.11v5.13h-17.11v8.46h18.41v5.41h-24.56v-32.38Z"/>
    <path class="cls-1" d="M937.95,633.14h8.14l8.93,24.05h.32l8.88-24.05h8.09v32.38h-6.15v-21.83h-.32l-8.19,21.83h-5.04l-8.19-21.83h-.32v21.83h-6.15v-32.38Z"/>
  </g>
  <g>
    <path class="cls-1" d="M413.66,519.2v56.13h108.25v28.06h-140.32v-140.32l28.06-28.06h-28.06v-28.06h140.32v28.06h-108.25v84.19Z"/>
    <path class="cls-1" d="M758.46,406.94l-74.97,196.45h-52.12l-73.37-196.45h36.08l60.14,169.19h8.02l60.14-169.19h36.08Z"/>
    <path class="cls-1" d="M972.95,575.33c0,7.76-2.74,14.37-8.22,19.85-5.48,5.48-12.1,8.22-19.85,8.22h-112.26c-7.76,0-14.37-2.74-19.85-8.22-5.48-5.48-8.22-12.09-8.22-19.85v-140.32c0-7.75,2.74-14.36,8.22-19.85,5.48-5.48,12.09-8.22,19.85-8.22h112.26c7.75,0,14.36,2.74,19.85,8.22,5.48,5.48,8.22,12.1,8.22,19.85v140.32ZM940.87,575.33v-140.32h-104.24v140.32h104.24Z"/>
  </g>
  <polygon class="cls-2" points="521.91 491.14 521.91 519.2 409.57 519.2 437.72 491.14 521.91 491.14"/>
  <polygon class="cls-2" points="330.92 471.54 218.55 538.94 150.41 499.58 150.41 524.97 218.55 564.32 308.93 512.12 308.93 537.71 218.54 589.92 150.41 550.56 150.41 575.95 218.55 615.31 218.55 615.3 308.93 563.1 308.93 588.5 218.55 640.71 128.27 588.56 128.27 484.23 218.55 432.08 289.26 473.12 311.01 460.1 218.55 406.69 106.29 471.55 106.28 601.24 218.55 666.09 330.92 601.19 330.92 471.54"/>
</svg>