<?xml version="1.0" encoding="UTF-8"?>
<svg id="Camada_1" data-name="Camada 1" xmlns="http://www.w3.org/2000/svg" viewBox="0 0 1080 1080">
  <polygon points="388.04 651.64 405.16 651.64 405.16 646.51 388.04 646.51 388.04 638.55 406.22 638.55 406.22 633.14 381.89 633.14 381.89 665.52 406.45 665.52 406.45 660.11 388.04 660.11 388.04 651.64"/>
  <polygon points="424.12 657.98 423.8 657.98 414.92 633.14 408.12 633.14 420.14 665.52 427.22 665.52 438.97 633.14 432.45 633.14 424.12 657.98"/>
  <path d="M455.57,632.59c-8.19,0-15.22,4.76-15.22,15.86v1.76c0,11.1,7.03,15.86,15.22,15.86s15.17-4.76,15.17-15.86v-1.76c0-11.1-6.98-15.86-15.17-15.86ZM464.27,651.46c0,6.15-2.82,9.11-8.69,9.11s-8.74-2.96-8.74-9.11v-4.25c0-6.15,2.87-9.11,8.74-9.11s8.69,2.96,8.69,9.11v4.25Z"/>
  <polygon points="482.59 633.14 476.44 633.14 476.44 665.52 499.28 665.52 499.28 660.11 482.59 660.11 482.59 633.14"/>
  <path d="M524.68,652.43c0,6.34-2.4,8.05-7.91,8.05s-7.86-1.71-7.86-8.05v-19.29h-6.15v20.67c0,7.26,3.61,12.26,14.01,12.26s14.06-4.99,14.06-12.26v-20.67h-6.15v19.29Z"/>
  <path d="M551.27,638.09c5.37,0,7.68,2.54,7.86,6.15l.05.83h6.1c0-8-5.23-12.49-14.01-12.49-8.09,0-15.12,4.76-15.12,15.86v1.76c0,10.78,6.66,15.59,14.48,15.86l-.69,2.68c1.25.37,1.99.79,1.99,1.57s-.65,1.02-1.67,1.02h-1.53v2.27c.88.23,1.8.42,3.05.42,3.38,0,5.04-1.11,5.04-3.47s-1.71-3.42-4.86-3.79l.14-.69c8.28-.28,13.18-4.76,13.18-12.95h-6.1l-.05.83c-.23,4.12-2.5,6.61-7.86,6.61-5.78,0-8.65-2.96-8.65-9.11v-4.25c0-6.15,2.87-9.11,8.65-9.11Z"/>
  <path d="M580.23,627.82c1.71,0,2.64,2.36,5.73,2.36s4.67-2.5,4.67-5.92h-3.28c-.05,1.3-.6,1.9-1.57,1.9-1.71,0-2.64-2.36-5.73-2.36-3.28,0-4.72,2.36-4.72,5.92h3.28c.05-1.29.65-1.9,1.62-1.9Z"/>
  <path d="M579.58,633.14l-12.86,32.38h6.57l2.91-7.68h13.41l2.91,7.68h6.8l-12.67-32.38h-7.08ZM578.1,652.8l4.62-12.21h.28l4.67,12.21h-9.57Z"/>
  <path d="M615.94,632.59c-8.19,0-15.22,4.76-15.22,15.86v1.76c0,11.1,7.03,15.86,15.22,15.86s15.17-4.76,15.17-15.86v-1.76c0-11.1-6.98-15.86-15.17-15.86ZM624.63,651.46c0,6.15-2.82,9.11-8.69,9.11s-8.74-2.96-8.74-9.11v-4.25c0-6.15,2.87-9.11,8.74-9.11s8.69,2.96,8.69,9.11v4.25Z"/>
  <polygon points="652.94 651.64 670.05 651.64 670.05 646.51 652.94 646.51 652.94 638.55 671.12 638.55 671.12 633.14 646.79 633.14 646.79 665.52 671.35 665.52 671.35 660.11 652.94 660.11 652.94 651.64"/>
  <polygon points="693.59 657.19 693.27 657.19 684.34 633.14 676.2 633.14 676.2 665.52 682.36 665.52 682.36 643.69 682.68 643.69 690.87 665.52 695.91 665.52 704.09 643.69 704.42 643.69 704.42 665.52 710.57 665.52 710.57 633.14 702.47 633.14 693.59 657.19"/>
  <path d="M748.87,652.43c0,6.34-2.41,8.05-7.91,8.05s-7.86-1.71-7.86-8.05v-19.29h-6.15v20.67c0,7.26,3.61,12.26,14.01,12.26s14.06-4.99,14.06-12.26v-20.67h-6.15v19.29Z"/>
  <path d="M778.65,646.83l-7.4-1.2c-3.05-.46-4.25-1.29-4.25-3.56v-.46c0-2.4,1.85-3.88,6.75-3.88,4.62,0,6.75,1.62,6.89,4.62l.05.83h5.92c-.23-7.26-4.35-10.59-12.86-10.59s-12.81,3.51-12.81,9.02v1.16c0,4.49,2.91,7.54,8.33,8.42l7.4,1.16c3.51.6,4.72,1.76,4.72,3.98v.46c0,2.73-2.22,4.02-7.12,4.02-5.23,0-7.82-1.53-8-5.23l-.05-.83h-6.01c.23,7.91,4.72,11.33,14.06,11.33,8.65,0,13.27-3.7,13.27-9.25v-1.39c0-4.63-2.78-7.68-8.88-8.6Z"/>
  <rect x="792.99" y="633.14" width="6.15" height="32.38"/>
  <polygon points="828.7 655.94 828.38 655.94 812.84 633.14 805.85 633.14 805.85 665.52 812 665.52 812 642.72 812.33 642.72 827.87 665.52 834.85 665.52 834.85 633.14 828.7 633.14 828.7 655.94"/>
  <path d="M851.23,633.14l-12.86,32.38h6.57l2.91-7.68h13.41l2.91,7.68h6.8l-12.67-32.38h-7.08ZM849.75,652.8l4.62-12.21h.28l4.67,12.21h-9.57Z"/>
  <path d="M887.44,653.4h8.97c-.32,5.41-2.77,7.31-8.69,7.31s-8.88-3.01-8.88-9.25v-4.25c0-6.15,2.87-9.11,8.74-9.11s7.96,2.36,8.09,5.69l.05.83h6.1c0-7.63-5.23-12.03-14.25-12.03-8.19,0-15.22,4.76-15.22,15.86v1.76c0,11.1,6.89,15.86,14.52,15.86,5,0,8.14-1.62,9.57-5.13h.32l1.2,4.58h3.98v-16.88h-14.52v4.76Z"/>
  <polygon points="914.69 651.64 931.8 651.64 931.8 646.51 914.69 646.51 914.69 638.55 932.86 638.55 932.86 633.14 908.54 633.14 908.54 665.52 933.09 665.52 933.09 660.11 914.69 660.11 914.69 651.64"/>
  <polygon points="955.34 657.19 955.02 657.19 946.09 633.14 937.95 633.14 937.95 665.52 944.1 665.52 944.1 643.69 944.43 643.69 952.61 665.52 957.66 665.52 965.84 643.69 966.17 643.69 966.17 665.52 972.32 665.52 972.32 633.14 964.22 633.14 955.34 657.19"/>
  <polygon points="521.91 575.33 413.66 575.33 413.66 519.2 521.91 519.2 521.91 491.14 437.72 491.14 413.66 515.12 413.66 435.01 521.91 435.01 521.91 406.94 381.59 406.94 381.59 435.01 409.65 435.01 381.59 463.07 381.59 603.4 521.91 603.4 521.91 575.33"/>
  <polygon points="662.23 576.13 654.22 576.13 594.08 406.94 557.99 406.94 631.36 603.4 683.48 603.4 758.46 406.94 722.37 406.94 662.23 576.13"/>
  <path d="M964.73,415.16c-5.48-5.48-12.1-8.22-19.85-8.22h-112.26c-7.76,0-14.37,2.74-19.85,8.22-5.48,5.48-8.22,12.1-8.22,19.85v140.32c0,7.76,2.74,14.37,8.22,19.85,5.48,5.48,12.09,8.22,19.85,8.22h112.26c7.75,0,14.36-2.74,19.85-8.22,5.48-5.48,8.22-12.09,8.22-19.85v-140.32c0-7.75-2.74-14.36-8.22-19.85ZM940.87,575.33h-104.24v-140.32h104.24v140.32Z"/>
  <polygon points="150.41 499.58 150.41 524.97 218.55 564.32 308.93 512.12 308.93 537.71 218.54 589.92 150.41 550.56 150.41 575.95 218.55 615.31 218.55 615.3 308.93 563.1 308.93 588.5 218.55 640.71 128.27 588.56 128.27 484.23 218.55 432.08 289.26 473.12 311.01 460.1 218.55 406.69 106.29 471.55 106.28 601.24 218.55 666.09 330.92 601.19 330.92 471.54 218.55 538.94 150.41 499.58"/>
</svg>