<?xml version="1.0" encoding="UTF-8"?>
<svg id="Camada_1" data-name="Camada 1" xmlns="http://www.w3.org/2000/svg" viewBox="0 0 1080 1080">
  <defs>
    <style>
      .cls-1 {
        fill: #e7e1d8;
      }

      .cls-2 {
        fill: #a55c2b;
      }
    </style>
  </defs>
  <g>
    <g>
      <path class="cls-1" d="M143.08,880.92h32.69v7.27h-24.42v10.69h23v6.9h-23v11.37h24.74v7.27h-33v-43.51Z"/>
      <path class="cls-1" d="M178.32,880.92h9.14l11.93,33.37h.43l11.19-33.37h8.76l-15.79,43.51h-9.51l-16.16-43.51Z"/>
      <path class="cls-1" d="M262.47,901.49v2.36c0,14.92-9.38,21.32-20.39,21.32s-20.45-6.4-20.45-21.32v-2.36c0-14.92,9.45-21.32,20.45-21.32s20.39,6.4,20.39,21.32ZM242.09,917.78c7.89,0,11.68-3.98,11.68-12.24v-5.72c0-8.27-3.79-12.24-11.68-12.24s-11.75,3.98-11.75,12.24v5.72c0,8.27,3.85,12.24,11.75,12.24Z"/>
      <path class="cls-1" d="M270.12,880.92h8.27v36.23h22.44v7.27h-30.7v-43.51Z"/>
      <path class="cls-1" d="M305.49,908.7v-27.78h8.27v25.92c0,8.51,3.23,10.81,10.57,10.81s10.63-2.3,10.63-10.81v-25.92h8.27v27.78c0,9.76-4.85,16.47-18.89,16.47s-18.83-6.71-18.83-16.47Z"/>
      <path class="cls-1" d="M381.32,907.77h8.2c0,11-6.59,17.03-17.71,17.4l-.19.93c4.23.5,6.53,1.86,6.53,5.1s-2.24,4.66-6.77,4.66c-1.68,0-2.92-.25-4.1-.56v-3.05h2.05c1.37,0,2.24-.31,2.24-1.37s-.99-1.62-2.67-2.11l.93-3.61c-10.5-.37-19.45-6.84-19.45-21.32v-2.36c0-14.92,9.45-21.32,20.32-21.32,11.81,0,18.83,6.03,18.83,16.78h-8.2l-.06-1.12c-.25-4.85-3.36-8.27-10.57-8.27-7.77,0-11.62,3.98-11.62,12.24v5.72c0,8.27,3.85,12.24,11.62,12.24,7.21,0,10.26-3.36,10.57-8.89l.06-1.12Z"/>
      <path class="cls-1" d="M408.73,880.92h9.51l17.03,43.51h-9.14l-3.92-10.32h-18.02l-3.92,10.32h-8.83l17.28-43.51ZM409.35,868.37c4.16,0,5.41,3.17,7.71,3.17,1.31,0,2.05-.81,2.11-2.55h4.41c0,4.6-1.93,7.96-6.28,7.96s-5.41-3.17-7.71-3.17c-1.31,0-2.11.81-2.18,2.55h-4.41c0-4.79,1.93-7.96,6.34-7.96ZM419.6,907.34l-6.28-16.41h-.37l-6.22,16.41h12.86Z"/>
      <path class="cls-1" d="M477.97,901.49v2.36c0,14.92-9.38,21.32-20.39,21.32s-20.45-6.4-20.45-21.32v-2.36c0-14.92,9.45-21.32,20.45-21.32s20.39,6.4,20.39,21.32ZM457.58,917.78c7.89,0,11.68-3.98,11.68-12.24v-5.72c0-8.27-3.79-12.24-11.68-12.24s-11.75,3.98-11.75,12.24v5.72c0,8.27,3.85,12.24,11.75,12.24Z"/>
      <path class="cls-1" d="M499.04,880.92h32.69v7.27h-24.42v10.69h23v6.9h-23v11.37h24.74v7.27h-33v-43.51Z"/>
      <path class="cls-1" d="M538.57,880.92h10.94l11.99,32.32h.44l11.93-32.32h10.88v43.51h-8.27v-29.34h-.44l-11,29.34h-6.77l-11-29.34h-.44v29.34h-8.27v-43.51Z"/>
      <path class="cls-1" d="M606.75,908.7v-27.78h8.27v25.92c0,8.51,3.23,10.81,10.56,10.81s10.63-2.3,10.63-10.81v-25.92h8.27v27.78c0,9.76-4.85,16.47-18.89,16.47s-18.83-6.71-18.83-16.47Z"/>
      <path class="cls-1" d="M673.57,906.71l-9.94-1.55c-7.27-1.18-11.19-5.28-11.19-11.31v-1.55c0-7.4,6.22-12.12,17.22-12.12s16.97,4.47,17.28,14.23h-7.96l-.06-1.12c-.19-4.04-3.05-6.22-9.26-6.22-6.59,0-9.07,1.99-9.07,5.22v.62c0,3.05,1.62,4.16,5.72,4.79l9.94,1.62c8.2,1.24,11.93,5.34,11.93,11.56v1.86c0,7.46-6.22,12.43-17.84,12.43-12.55,0-18.58-4.6-18.89-15.23h8.08l.06,1.12c.25,4.97,3.73,7.02,10.75,7.02,6.59,0,9.57-1.74,9.57-5.41v-.62c0-2.98-1.62-4.54-6.34-5.34Z"/>
      <path class="cls-1" d="M695.51,880.92h8.27v43.51h-8.27v-43.51Z"/>
      <path class="cls-1" d="M712.79,880.92h9.38l20.88,30.64h.44v-30.64h8.27v43.51h-9.38l-20.88-30.64h-.44v30.64h-8.27v-43.51Z"/>
      <path class="cls-1" d="M773.76,880.92h9.51l17.03,43.51h-9.14l-3.91-10.32h-18.02l-3.92,10.32h-8.83l17.28-43.51ZM784.64,907.34l-6.28-16.41h-.37l-6.22,16.41h12.87Z"/>
      <path class="cls-1" d="M802.17,903.86v-2.36c0-14.92,9.45-21.32,20.45-21.32,12.12,0,19.14,5.9,19.14,16.16h-8.2l-.06-1.12c-.19-4.47-3.36-7.64-10.88-7.64-7.89,0-11.75,3.98-11.75,12.24v5.72c0,8.39,4.16,12.43,11.93,12.43s11.25-2.55,11.68-9.82h-12.06v-6.4h19.51v22.68h-5.34l-1.62-6.15h-.44c-1.93,4.72-6.15,6.9-12.86,6.9-10.25,0-19.52-6.4-19.52-21.32Z"/>
      <path class="cls-1" d="M850.78,880.92h32.69v7.27h-24.42v10.69h23v6.9h-23v11.37h24.74v7.27h-33v-43.51Z"/>
      <path class="cls-1" d="M890.31,880.92h10.94l11.99,32.32h.44l11.93-32.32h10.88v43.51h-8.27v-29.34h-.44l-11,29.34h-6.77l-11-29.34h-.44v29.34h-8.27v-43.51Z"/>
    </g>
    <g>
      <g>
        <path class="cls-1" d="M185.77,727.81v75.43h145.46v37.71h-188.57v-188.57l37.71-37.71h-37.71v-37.71h188.57v37.71h-145.46v113.14Z"/>
        <path class="cls-1" d="M649.1,576.96l-100.75,263.99h-70.04l-98.59-263.99h48.49l80.81,227.36h10.77l80.81-227.36h48.49Z"/>
        <path class="cls-1" d="M937.33,803.24c0,10.42-3.69,19.31-11.04,26.67-7.37,7.37-16.26,11.04-26.67,11.04h-150.85c-10.42,0-19.31-3.68-26.67-11.04-7.37-7.36-11.04-16.25-11.04-26.67v-188.57c0-10.41,3.68-19.3,11.04-26.67,7.36-7.36,16.25-11.04,26.67-11.04h150.85c10.41,0,19.3,3.69,26.67,11.04,7.36,7.37,11.04,16.26,11.04,26.67v188.57ZM894.23,803.24v-188.57h-140.08v188.57h140.08Z"/>
      </g>
      <polygon class="cls-2" points="331.23 690.1 331.23 727.81 180.27 727.81 218.09 690.1 331.23 690.1"/>
    </g>
  </g>
  <polygon class="cls-2" points="698.27 235.51 539.93 330.49 443.91 275.03 443.91 310.8 539.93 366.26 667.29 292.69 667.29 328.75 539.92 402.33 443.91 346.87 443.91 382.64 539.93 438.1 539.93 438.1 667.29 364.53 667.29 400.32 539.93 473.89 412.71 400.4 412.71 253.39 539.93 179.91 639.57 237.74 670.21 219.4 539.93 144.14 381.73 235.53 381.73 418.28 539.93 509.66 698.27 418.2 698.27 235.51"/>
</svg>