<?xml version="1.0" encoding="UTF-8"?>
<svg id="Camada_1" data-name="Camada 1" xmlns="http://www.w3.org/2000/svg" viewBox="0 0 1080 1080">
  <polygon points="151.34 905.78 174.34 905.78 174.34 898.88 151.34 898.88 151.34 888.19 175.77 888.19 175.77 880.92 143.08 880.92 143.08 924.43 176.08 924.43 176.08 917.16 151.34 917.16 151.34 905.78"/>
  <polygon points="199.82 914.3 199.39 914.3 187.46 880.92 178.32 880.92 194.48 924.43 203.99 924.43 219.77 880.92 211.01 880.92 199.82 914.3"/>
  <path d="M242.09,880.18c-11,0-20.45,6.4-20.45,21.32v2.36c0,14.92,9.45,21.32,20.45,21.32s20.39-6.4,20.39-21.32v-2.36c0-14.92-9.38-21.32-20.39-21.32ZM253.77,905.53c0,8.27-3.79,12.24-11.68,12.24s-11.75-3.98-11.75-12.24v-5.72c0-8.27,3.85-12.24,11.75-12.24s11.68,3.98,11.68,12.24v5.72Z"/>
  <polygon points="278.39 880.92 270.12 880.92 270.12 924.43 300.83 924.43 300.83 917.16 278.39 917.16 278.39 880.92"/>
  <path d="M334.95,906.84c0,8.51-3.23,10.81-10.63,10.81s-10.57-2.3-10.57-10.81v-25.92h-8.27v27.78c0,9.76,4.85,16.47,18.83,16.47s18.89-6.71,18.89-16.47v-27.78h-8.27v25.92Z"/>
  <path d="M370.69,887.57c7.21,0,10.32,3.42,10.57,8.27l.06,1.12h8.2c0-10.75-7.02-16.78-18.83-16.78-10.88,0-20.32,6.4-20.32,21.32v2.36c0,14.48,8.95,20.94,19.45,21.32l-.93,3.6c1.68.5,2.67,1.06,2.67,2.11s-.87,1.37-2.24,1.37h-2.05v3.04c1.18.31,2.42.56,4.1.56,4.54,0,6.77-1.49,6.77-4.66s-2.3-4.6-6.53-5.1l.19-.93c11.13-.37,17.71-6.4,17.71-17.4h-8.2l-.06,1.12c-.31,5.53-3.36,8.89-10.57,8.89-7.77,0-11.62-3.98-11.62-12.24v-5.72c0-8.27,3.85-12.24,11.62-12.24Z"/>
  <path d="M408.73,880.92l-17.28,43.51h8.83l3.92-10.32h18.02l3.92,10.32h9.14l-17.03-43.51h-9.51ZM406.74,907.34l6.22-16.41h.37l6.28,16.41h-12.86Z"/>
  <path d="M409.6,873.77c2.3,0,3.54,3.17,7.71,3.17s6.28-3.36,6.28-7.96h-4.41c-.06,1.74-.81,2.55-2.11,2.55-2.3,0-3.54-3.17-7.71-3.17-4.41,0-6.34,3.17-6.34,7.96h4.41c.06-1.74.87-2.55,2.18-2.55Z"/>
  <path d="M457.58,880.18c-11,0-20.45,6.4-20.45,21.32v2.36c0,14.92,9.45,21.32,20.45,21.32s20.39-6.4,20.39-21.32v-2.36c0-14.92-9.38-21.32-20.39-21.32ZM469.27,905.53c0,8.27-3.79,12.24-11.68,12.24s-11.75-3.98-11.75-12.24v-5.72c0-8.27,3.85-12.24,11.75-12.24s11.68,3.98,11.68,12.24v5.72Z"/>
  <polygon points="507.31 905.78 530.3 905.78 530.3 898.88 507.31 898.88 507.31 888.19 531.73 888.19 531.73 880.92 499.04 880.92 499.04 924.43 532.04 924.43 532.04 917.16 507.31 917.16 507.31 905.78"/>
  <polygon points="561.94 913.24 561.5 913.24 549.51 880.92 538.57 880.92 538.57 924.43 546.84 924.43 546.84 895.09 547.27 895.09 558.27 924.43 565.05 924.43 576.05 895.09 576.48 895.09 576.48 924.43 584.75 924.43 584.75 880.92 573.87 880.92 561.94 913.24"/>
  <path d="M636.21,906.84c0,8.51-3.23,10.81-10.63,10.81s-10.56-2.3-10.56-10.81v-25.92h-8.27v27.78c0,9.76,4.85,16.47,18.83,16.47s18.89-6.71,18.89-16.47v-27.78h-8.27v25.92Z"/>
  <path d="M676.24,899.32l-9.94-1.62c-4.1-.62-5.72-1.74-5.72-4.79v-.62c0-3.23,2.49-5.22,9.07-5.22,6.22,0,9.07,2.18,9.26,6.22l.06,1.12h7.96c-.31-9.76-5.84-14.23-17.28-14.23s-17.22,4.72-17.22,12.12v1.55c0,6.03,3.92,10.13,11.19,11.31l9.94,1.55c4.72.81,6.34,2.36,6.34,5.34v.62c0,3.67-2.98,5.41-9.57,5.41-7.02,0-10.5-2.05-10.75-7.02l-.06-1.12h-8.08c.31,10.63,6.34,15.23,18.89,15.23,11.62,0,17.84-4.97,17.84-12.43v-1.86c0-6.22-3.73-10.32-11.93-11.56Z"/>
  <rect x="695.51" y="880.92" width="8.27" height="43.51"/>
  <polygon points="743.49 911.56 743.06 911.56 722.18 880.92 712.79 880.92 712.79 924.43 721.06 924.43 721.06 893.79 721.49 893.79 742.37 924.43 751.76 924.43 751.76 880.92 743.49 880.92 743.49 911.56"/>
  <path d="M773.76,880.92l-17.28,43.51h8.83l3.92-10.32h18.02l3.91,10.32h9.14l-17.03-43.51h-9.51ZM771.78,907.34l6.22-16.41h.37l6.28,16.41h-12.87Z"/>
  <path d="M822.43,908.14h12.06c-.43,7.27-3.73,9.82-11.68,9.82s-11.93-4.04-11.93-12.43v-5.72c0-8.27,3.85-12.24,11.75-12.24s10.69,3.17,10.88,7.65l.06,1.12h8.2c0-10.25-7.02-16.16-19.14-16.16-11,0-20.45,6.4-20.45,21.32v2.36c0,14.92,9.26,21.32,19.52,21.32,6.71,0,10.94-2.18,12.86-6.9h.44l1.62,6.15h5.34v-22.68h-19.51v6.4Z"/>
  <polygon points="859.04 905.78 882.04 905.78 882.04 898.88 859.04 898.88 859.04 888.19 883.47 888.19 883.47 880.92 850.78 880.92 850.78 924.43 883.78 924.43 883.78 917.16 859.04 917.16 859.04 905.78"/>
  <polygon points="913.68 913.24 913.24 913.24 901.25 880.92 890.31 880.92 890.31 924.43 898.57 924.43 898.57 895.09 899.01 895.09 910.01 924.43 916.78 924.43 927.78 895.09 928.22 895.09 928.22 924.43 936.48 924.43 936.48 880.92 925.61 880.92 913.68 913.24"/>
  <polygon points="331.23 803.24 185.77 803.24 185.77 727.81 331.23 727.81 331.23 690.1 218.09 690.1 185.77 722.33 185.77 614.67 331.23 614.67 331.23 576.96 142.67 576.96 142.67 614.67 180.38 614.67 142.67 652.38 142.67 840.95 331.23 840.95 331.23 803.24"/>
  <polygon points="519.8 804.31 509.02 804.31 428.21 576.96 379.72 576.96 478.31 840.95 548.35 840.95 649.1 576.96 600.61 576.96 519.8 804.31"/>
  <path d="M926.29,588c-7.37-7.36-16.26-11.04-26.67-11.04h-150.85c-10.42,0-19.31,3.69-26.67,11.04-7.37,7.37-11.04,16.26-11.04,26.67v188.57c0,10.42,3.68,19.31,11.04,26.67,7.36,7.37,16.25,11.04,26.67,11.04h150.85c10.41,0,19.3-3.68,26.67-11.04,7.36-7.36,11.04-16.25,11.04-26.67v-188.57c0-10.41-3.69-19.3-11.04-26.67ZM894.23,803.24h-140.08v-188.57h140.08v188.57Z"/>
  <polygon points="698.27 418.2 698.27 235.51 539.93 330.49 443.91 275.03 443.91 310.8 539.93 366.26 667.29 292.69 667.29 328.75 539.92 402.33 443.91 346.87 443.91 382.64 539.93 438.1 539.93 438.09 667.29 364.53 667.29 400.32 539.93 473.89 412.71 400.4 412.71 253.39 539.93 179.91 639.57 237.74 670.21 219.4 539.93 144.14 381.73 235.53 381.73 418.28 539.93 509.66 698.27 418.2"/>
</svg>